<?xml version="1.0" encoding="utf-8"?>
<!-- Generator: Adobe Illustrator 27.5.0, SVG Export Plug-In . SVG Version: 6.00 Build 0)  -->
<svg version="1.1" id="Layer_1" xmlns="http://www.w3.org/2000/svg" xmlns:xlink="http://www.w3.org/1999/xlink" x="0px" y="0px"
	 viewBox="0 0 841.89 595.28" style="enable-background:new 0 0 841.89 595.28;" xml:space="preserve">
<style type="text/css">
	.st0{font-family:'Satisfy-Regular';}
	.st1{font-size:102.7182px;}
	.st2{letter-spacing:2.01;}
	.st3{fill:#166131;stroke:#FFFFFF;stroke-miterlimit:10;}
	.st4{fill:#166131;}
	.st5{fill:#FFFFFF;}
	.st6{fill:none;stroke:#000000;stroke-miterlimit:10;}
	.st7{font-family:'MicrosoftUighur';}
	.st8{font-size:31.7131px;}
	.st9{letter-spacing:1.08;}
</style>
<g>
	<text transform="matrix(0.9961 0 0 1 423.1823 280.3805)" class="st0 st1 st2">ura</text>
	<g>
		<path class="st3" d="M362.1,152.05c2.41,4.1,1.38,11.74,0.92,14.27c-1.64,9.04-24.05-6.73-36.36,1.84
			c-3.34,2.33-4.91,5.32-5.98,7.36c-10.61,20.25,24.15,49.54,28.54,91.14c3.82,36.26-17.15,65.41-40.97,98.51
			c-3.6,5.01-10.05,13.58-12.43,11.05c-3.45-3.68,9.73-28.38,2.76-63.98c-2.07-10.59-8.27-32.12-8.29-61.22
			c-0.01-18.12-0.02-45.7,17.49-69.05c0.33-0.44,1.87-2.41,4.17-4.95C329.85,157.33,357.76,144.68,362.1,152.05z"/>
		<g>
			<path class="st4" d="M314.22,178.29c1.47,20.2,2.94,40.4,4.41,60.59c1.6,22,3.2,43.99,4.8,65.99"/>
			<path class="st5" d="M314.22,178.29c3.62,40.62,6.89,85.84,9.21,126.58C319.82,264.21,316.52,219.02,314.22,178.29L314.22,178.29
				z"/>
		</g>
		<g>
			<path class="st4" d="M316.78,216.29c-0.82-0.47-6.2-3.43-11.97-1.15c-2.52,1-4.16,2.62-5.06,3.68"/>
			<path class="st5" d="M316.78,216.29c-5.61-2.67-12.63-2.12-17.03,2.53C303.42,213.28,311.58,212.54,316.78,216.29L316.78,216.29z
				"/>
		</g>
		<g>
			<path class="st4" d="M317.89,241.32c-1.13,0.16-8.53,1.24-15.54,5.01c-3.06,1.64-4.88,3.18-5.85,4.1"/>
			<path class="st5" d="M317.89,241.32c-7.57,1.76-15.21,4.25-21.39,9.11C302.03,244.75,310.14,242.06,317.89,241.32L317.89,241.32z
				"/>
		</g>
		<g>
			<path class="st4" d="M342.65,260.83c-0.92-0.89-6.99-6.65-15.37-9.45c-3.66-1.22-6.38-1.42-7.94-1.41"/>
			<path class="st5" d="M342.65,260.83c-6.69-5.45-14.55-10.12-23.31-10.86C328.21,249.65,336.66,254.59,342.65,260.83
				L342.65,260.83z"/>
		</g>
		<path class="st3" d="M379.72,326.59c-0.15,1.18,2.86,3.05,5.87,3.19c5.11,0.25,9.1-4.53,10.71-6.46
			c15.02-17.98,14.21-50.61,14.21-50.61c-0.79-31.76-14.3-53.82-17.01-58.11c-12.41-19.67-40.03-34.94-40.03-34.94
			c-2.76,1.66-1.48,6.36,0.35,24.26c4.04,39.6,7.36,44.43,11.4,57.24c1.95,6.18,7.89,14.35,17.67,25.19
			c10.25,11.36,14.73,20.27,13.45,27.49c-0.67,3.77-4.52,7.85-8.35,9.81C383.81,325.79,379.88,325.28,379.72,326.59z"/>
		<g>
			<path class="st4" d="M400.94,299.11c-4.63-14.31-9.62-28.97-15.01-43.93c-6.27-17.39-12.7-34.13-19.2-50.21"/>
			<path class="st5" d="M400.94,299.11c-11.14-30.94-22.28-63.38-34.22-94.13C380.04,235.57,390.92,267.32,400.94,299.11
				L400.94,299.11z"/>
		</g>
		<g>
			<path class="st4" d="M396.54,268.82c1.12-0.77,4.7-3.42,6.24-8.43c1.29-4.2,0.44-7.75,0.03-9.14"/>
			<path class="st5" d="M396.54,268.82c5.09-4.3,7.52-10.96,6.27-17.57C405.58,257.5,402.61,265.72,396.54,268.82L396.54,268.82z"/>
		</g>
		<g>
			<path class="st4" d="M388.84,263.69c-2.14-0.29-7.2-1.29-11.63-5.4c-7.57-7.05-6.72-17.16-6.59-18.44"/>
			<path class="st5" d="M388.84,263.69c-12.02-0.87-19.94-12.22-18.22-23.84c-0.09,2.77,0.25,5.54,0.96,8.18
				C373.62,256.16,380.63,262.29,388.84,263.69L388.84,263.69z"/>
		</g>
	</g>
	<path class="st6" d="M562.35,259.5c-0.65-0.68-3.18-4.74-1.61-9.44c0.78-2.34,1.61-5.04,7.83-8.06c4.97-2.41,7.49-3.59,9.21-2.76
		c3.53,1.7,3.28,8.54,3.22,10.13c-0.16,4.35-1.86,7.58-2.99,9.67c-1.67,3.09-7.08,3.9-8.52,5.29"/>
	<text transform="matrix(0.9244 0 0 1 419.1706 315.9547)" class="st7 st8 st9">AGRICULTURE</text>
</g>
</svg>
