<?xml version="1.0" encoding="utf-8"?>
<!-- Generator: Adobe Illustrator 27.5.0, SVG Export Plug-In . SVG Version: 6.00 Build 0)  -->
<svg version="1.1" id="Layer_1" xmlns="http://www.w3.org/2000/svg" xmlns:xlink="http://www.w3.org/1999/xlink" x="0px" y="0px"
	 viewBox="0 0 841.89 595.28" style="enable-background:new 0 0 841.89 595.28;" xml:space="preserve">
<style type="text/css">
	.st0{stroke:#000000;stroke-miterlimit:10;}
	.st1{fill:#DBC8CD;}
	.st2{fill:none;stroke:#000000;stroke-miterlimit:10;}
</style>
<g>
	<circle class="st0" cx="421.03" cy="297.43" r="186.43"/>
	<path class="st1" d="M420.96,262.14h33.31v-66.62c0,0-31.55-0.4-33.31,0c0.01,0-33.31,16.04-33.31,16.04l-33.31,17.27v33.31h33.31
		v-33.31l29.24-13.18c1.91-0.86,4.07,0.54,4.07,2.63V262.14z"/>
	<path class="st1" d="M454.72,357.77c-0.1,2.56,2.12,4.3-0.45,4.3l-60.97,0c-3.19,0-5.77-2.58-5.78-5.77
		c-0.05-16.57,2-42.96,0.54-55.75c-0.33-2.91-2.81-5.1-5.74-5.1l-22.2,0c-3.19,0-5.78,2.59-5.78,5.78l0,88.39
		c0,3.18,2.58,5.77,5.76,5.77c19.27,0,78.27,0,108.78,0c10.4,0,18.83-8.41,18.84-18.82c0.02-24.03-0.14-63.54-0.14-76.25
		c0-4.52-3.36-4.86-5.14-4.86c-5.14,0-61.48-0.76-61.48,0c0,1.54,0,25.77,0,33.31c0,0.72,33.31,0,33.31,0"/>
	<circle class="st2" cx="421.03" cy="297.71" r="218.73"/>
</g>
</svg>
