<?xml version="1.0" encoding="utf-8"?>
<!-- Generator: Adobe Illustrator 27.5.0, SVG Export Plug-In . SVG Version: 6.00 Build 0)  -->
<svg version="1.1" id="Layer_1" xmlns="http://www.w3.org/2000/svg" xmlns:xlink="http://www.w3.org/1999/xlink" x="0px" y="0px"
	 viewBox="0 0 1440 595.3" style="enable-background:new 0 0 1440 595.3;" xml:space="preserve">
<path d="M984.7,334.5c0.6-4.4,1.1-8.8,1.5-13.2h-1.5v-4H720.5V46.6c1.9,0,3.8,0.1,5.6,0.1v-0.1h174.5V31.2H726.2V31
	c-1.9,0-3.7-0.1-5.6-0.1c-5.6,0-11.1,0.2-16.6,0.6h-5.4v0.4c-68.8,5.6-130.2,37.3-174.3,85.2h-0.7v0.8
	c-43.4,47.4-69.8,110.6-69.8,179.9c0,147.3,119.4,266.8,266.8,266.8c133.8,0,244.4-98.5,263.7-226.8h0.5L984.7,334.5L984.7,334.5z
	 M693.7,48.2L631.3,291l-71-181.4C596.7,76.2,642.8,54,693.7,48.2z M523.5,151.9v291.5c-28.3-41.1-45.1-91.4-45.1-145.8
	S495.2,193,523.5,151.9z M543.2,468.5V126.8c0.3-0.4,0.7-0.7,1-1.1l79.2,202.4l9-3.5l8.7,2.3l1.6-6.3l0,0v-0.1l55.8-216.8v443.9
	C637.4,541.9,582.8,512.6,543.2,468.5z M720.5,548.7V337.6h238.9C941,457.3,841.1,548.7,720.5,548.7z"/>
</svg>
