<?xml version="1.0" encoding="utf-8"?>
<!-- Generator: Adobe Illustrator 27.5.0, SVG Export Plug-In . SVG Version: 6.00 Build 0)  -->
<svg version="1.1" id="Layer_1" xmlns="http://www.w3.org/2000/svg" xmlns:xlink="http://www.w3.org/1999/xlink" x="0px" y="0px"
	 viewBox="0 0 1920 321" style="enable-background:new 0 0 1920 321;" xml:space="preserve">
<path d="M1108.96,181.18c0.34-2.48,0.62-4.95,0.84-7.43h-0.84v-2.25H960.28V19.16c1.07,0,2.14,0.06,3.15,0.06v-0.06h98.2V10.5
	h-98.14v-0.11c-1.07,0-2.08-0.06-3.15-0.06c-3.15,0-6.25,0.11-9.34,0.34h-3.04v0.23c-38.72,3.15-73.27,20.99-98.09,47.95h-0.39v0.45
	c-24.42,26.67-39.28,62.24-39.28,101.24c0,82.89,67.19,150.14,150.14,150.14c75.3,0,137.54-55.43,148.4-127.63h0.28L1108.96,181.18
	L1108.96,181.18z M945.2,20.06L910.08,156.7L870.13,54.62C890.61,35.82,916.56,23.33,945.2,20.06z M849.42,78.42v164.04
	c-15.93-23.13-25.38-51.44-25.38-82.05S833.49,101.55,849.42,78.42z M860.5,256.59V64.3c0.17-0.23,0.39-0.39,0.56-0.62l44.57,113.9
	l5.06-1.97l4.9,1.29l0.9-3.55l0,0v-0.06L947.9,51.3V301.1C913.52,297.9,882.79,281.41,860.5,256.59z M960.28,301.72v-118.8h134.44
	C1084.37,250.29,1028.15,301.72,960.28,301.72z"/>
</svg>
