<?xml version="1.0" encoding="utf-8"?>
<!-- Generator: Adobe Illustrator 27.5.0, SVG Export Plug-In . SVG Version: 6.00 Build 0)  -->
<svg version="1.1" id="Layer_1" xmlns="http://www.w3.org/2000/svg" xmlns:xlink="http://www.w3.org/1999/xlink" x="0px" y="0px"
	 viewBox="0 0 1440 595.28" style="enable-background:new 0 0 1440 595.28;" xml:space="preserve">
<style type="text/css">
	.st0{stroke:#000000;stroke-miterlimit:10;}
	.st1{fill:#BBDFF6;}
	.st2{fill:none;stroke:#000000;stroke-miterlimit:10;}
</style>
<g>
	<circle class="st0" cx="720" cy="297.4" r="164.84"/>
	<path class="st1" d="M719.94,266.19h29.45v-58.91c0,0-27.89-0.36-29.45,0c0.01,0-29.45,14.18-29.45,14.18l-29.45,15.27v29.45h29.45
		v-29.45l25.85-11.65c1.69-0.76,3.6,0.47,3.6,2.33V266.19z"/>
	<path class="st1" d="M749.79,350.74c-0.09,2.26,1.87,3.8-0.39,3.8l-53.91,0c-2.82,0-5.1-2.28-5.11-5.1
		c-0.05-14.66,1.77-37.98,0.48-49.29c-0.29-2.58-2.48-4.51-5.08-4.51l-19.63,0c-2.82,0-5.11,2.29-5.11,5.11l0,78.15
		c0,2.82,2.28,5.1,5.09,5.1c17.04,0,69.21,0,96.18,0c9.2,0,16.65-7.44,16.66-16.64c0.02-21.25-0.12-56.18-0.12-67.42
		c0-4-2.97-4.3-4.55-4.3c-4.55,0-54.36-0.67-54.36,0c0,1.36,0,22.78,0,29.45c0,0.64,29.45,0,29.45,0"/>
	<circle class="st2" cx="720" cy="297.64" r="193.4"/>
</g>
</svg>
